<svg id="SvgjsSvg1016" width="288" height="288" xmlns="http://www.w3.org/2000/svg" version="1.1" xmlns:xlink="http://www.w3.org/1999/xlink" xmlns:svgjs="http://svgjs.com/svgjs"><defs id="SvgjsDefs1017"></defs><g id="SvgjsG1018"><svg xmlns="http://www.w3.org/2000/svg" width="288" height="288" viewBox="0 0 512 512"><path d="M197.332031 0h-160c-20.585937 0-37.332031 16.746094-37.332031 37.332031v96c0 20.589844 16.746094 37.335938 37.332031 37.335938h160c20.589844 0 37.335938-16.746094 37.335938-37.335938v-96c0-20.585937-16.746094-37.332031-37.335938-37.332031zm0 0M197.332031 213.332031h-160c-20.585937 0-37.332031 16.746094-37.332031 37.335938v224c0 20.585937 16.746094 37.332031 37.332031 37.332031h160c20.589844 0 37.335938-16.746094 37.335938-37.332031v-224c0-20.589844-16.746094-37.335938-37.335938-37.335938zm0 0M474.667969 341.332031h-160c-20.589844 0-37.335938 16.746094-37.335938 37.335938v96c0 20.585937 16.746094 37.332031 37.335938 37.332031h160c20.585937 0 37.332031-16.746094 37.332031-37.332031v-96c0-20.589844-16.746094-37.335938-37.332031-37.335938zm0 0M474.667969 0h-160c-20.589844 0-37.335938 16.746094-37.335938 37.332031v224c0 20.589844 16.746094 37.335938 37.335938 37.335938h160c20.585937 0 37.332031-16.746094 37.332031-37.335938v-224c0-20.585937-16.746094-37.332031-37.332031-37.332031zm0 0" fill="#ffffff" class="color000 svgShape"></path></svg></g></svg>